   <svg viewBox="0 0 48 48" fill="none" xmlns="http://www.w3.org/2000/svg">
        <circle cx="24" cy="20" r="8" stroke="currentColor" stroke-width="2" />
        <circle cx="24" cy="20" r="3" fill="currentColor" />
        <path d="M16 20L8 16" stroke="currentColor" stroke-width="1.5" stroke-linecap="round" />
        <path d="M16 20L8 24" stroke="currentColor" stroke-width="1.5" stroke-linecap="round" />
        <path d="M16 20L8 28" stroke="currentColor" stroke-width="1.5" stroke-linecap="round" />
        <path d="M32 20L40 16" stroke="currentColor" stroke-width="1.5" stroke-linecap="round" />
        <path d="M32 20L40 24" stroke="currentColor" stroke-width="1.5" stroke-linecap="round" />
        <path d="M32 20L40 28" stroke="currentColor" stroke-width="1.5" stroke-linecap="round" />
        <path d="M20 12L24 8" stroke="currentColor" stroke-width="1.5" stroke-linecap="round" />
        <path d="M24 12L28 8" stroke="currentColor" stroke-width="1.5" stroke-linecap="round" />
        <path d="M24 28L20 36" stroke="currentColor" stroke-width="1.5" stroke-linecap="round" />
        <path d="M24 28L28 36" stroke="currentColor" stroke-width="1.5" stroke-linecap="round" />
        <circle cx="8" cy="16" r="1.5" fill="currentColor" />
        <circle cx="8" cy="24" r="1.5" fill="currentColor" />
        <circle cx="8" cy="28" r="1.5" fill="currentColor" />
        <circle cx="40" cy="16" r="1.5" fill="currentColor" />
        <circle cx="40" cy="24" r="1.5" fill="currentColor" />
        <circle cx="40" cy="28" r="1.5" fill="currentColor" />
        <circle cx="24" cy="8" r="1.5" fill="currentColor" />
        <circle cx="20" cy="36" r="1.5" fill="currentColor" />
        <circle cx="28" cy="36" r="1.5" fill="currentColor" />
      </svg>